<svg width="128px" height="128px" xmlns="http://www.w3.org/2000/svg" xmlns:xlink="http://www.w3.org/1999/xlink" version="1.1" x="0px" y="0px" viewBox="0 0 32 32" enable-background="new 0 0 32 32" xml:space="preserve"><g display="none"><rect x="-144.08" y="31.99" display="inline" opacity="0.59" fill="#000000" width="505.08" height="7"></rect></g><g display="none"><g display="inline"><path fill="#000000" d="M16,2c7.72,0,14,6.28,14,14s-6.28,14-14,14S2,23.72,2,16S8.28,2,16,2 M16,0C7.16,0,0,7.16,0,16    s7.16,16,16,16c8.84,0,16-7.16,16-16S24.84,0,16,0L16,0z"></path></g><text transform="matrix(1 0 0 1 8.0061 25.5172)" display="inline" font-family="'Arial-BoldMT'" font-size="26.2096px">?</text></g><g display="none"><ellipse display="inline" fill="#000000" stroke="#1A1718" stroke-miterlimit="10" cx="16" cy="16" rx="15.5" ry="15.48"></ellipse><text transform="matrix(1 0 0 1 8.0061 25.5172)" display="inline" fill="#000000" stroke="#1A1718" stroke-miterlimit="10" font-family="'Arial-BoldMT'" font-size="26.2096px">?</text></g><g><g><g><path fill="#000000" d="M16,31.98C7.18,31.98,0,24.81,0,16S7.18,0.02,16,0.02S32,7.19,32,16S24.82,31.98,16,31.98z M16,1.02     C7.73,1.02,1,7.74,1,16s6.73,14.98,15,14.98S31,24.26,31,16S24.27,1.02,16,1.02z"></path></g></g><g><g><path fill="#000000" d="M18.45,26.64h-4.6v-4.6h4.6V26.64z M14.85,25.64h2.6v-2.6h-2.6V25.64z M18.13,20.48h-4.26l-0.01-0.49     c-0.01-0.47-0.01-0.76-0.01-0.87c0-1.13,0.2-2.09,0.58-2.84c0.38-0.75,1.11-1.56,2.23-2.46c1.33-1.08,1.7-1.46,1.8-1.6     c0.25-0.33,0.37-0.68,0.37-1.08c0-0.55-0.22-1.02-0.67-1.42c-0.47-0.42-1.1-0.62-1.93-0.62c-0.8,0-1.44,0.22-1.97,0.66     c-0.53,0.44-0.9,1.15-1.1,2.1l-0.1,0.45l-4.22-0.52l0.03-0.47c0.1-1.66,0.82-3.08,2.12-4.24c1.3-1.14,3.01-1.72,5.08-1.72     c2.18,0,3.95,0.59,5.26,1.75c1.33,1.17,2,2.57,2,4.14c0,0.89-0.25,1.73-0.75,2.52c-0.48,0.76-1.45,1.74-2.98,3.01     c-0.87,0.73-1.18,1.14-1.28,1.35c-0.08,0.18-0.22,0.65-0.2,1.84L18.13,20.48z M14.84,19.48h2.27c0.02-0.81,0.12-1.39,0.3-1.78     c0.22-0.46,0.71-1,1.54-1.69c1.42-1.18,2.35-2.12,2.77-2.78c0.4-0.63,0.59-1.28,0.59-1.99c0-1.3-0.54-2.41-1.66-3.39     c-1.12-0.99-2.67-1.49-4.6-1.49c-1.83,0-3.32,0.5-4.42,1.47c-0.99,0.87-1.56,1.88-1.74,3.08l2.38,0.29     C12.56,10.26,13,9.51,13.61,9c0.71-0.6,1.58-0.9,2.61-0.9c1.07,0,1.94,0.29,2.59,0.88c0.67,0.6,1.01,1.33,1.01,2.17     c0,0.61-0.19,1.18-0.57,1.68c-0.15,0.2-0.52,0.59-1.97,1.76c-0.99,0.81-1.65,1.53-1.97,2.14c-0.31,0.61-0.47,1.41-0.47,2.38     C14.84,19.18,14.84,19.3,14.84,19.48z"></path></g></g></g></svg>