<svg width="128px" height="128px" xmlns="http://www.w3.org/2000/svg" xmlns:xlink="http://www.w3.org/1999/xlink" version="1.1" x="0px" y="0px" viewBox="0 0 32 32" enable-background="new 0 0 32 32" xml:space="preserve"><g display="none"><rect x="-95.55" y="-124.333" display="inline" fill="#454d55" width="421.212" height="207"></rect></g><g><path d="M23.216,28.354H8.783V13.138l6.937-5.561l7.497,5.549V28.354z M9.783,27.354h12.434V13.63l-6.474-4.791l-5.96,4.779V27.354   z"></path><polygon points="32,28.354 22.716,28.354 22.716,27.354 31,27.354 31,19.565 23.233,19.565 23.233,18.565 32,18.565  "></polygon><polygon points="8.766,28.354 0,28.354 0,18.565 9.283,18.565 9.283,19.565 1,19.565 1,27.354 8.766,27.354  "></polygon><rect x="11.35" y="16.997" width="2.067" height="2.068"></rect><rect x="14.967" y="16.997" width="2.067" height="2.068"></rect><rect x="18.583" y="16.997" width="2.067" height="2.068"></rect><rect x="11.35" y="20.099" width="2.067" height="2.068"></rect><rect x="2.05" y="21.133" width="2.067" height="2.068"></rect><rect x="5.667" y="21.133" width="2.067" height="2.068"></rect><rect x="24.267" y="21.133" width="2.067" height="2.068"></rect><rect x="27.883" y="21.133" width="2.067" height="2.068"></rect><rect x="14.967" y="20.099" width="2.067" height="2.068"></rect><rect x="18.583" y="20.099" width="2.067" height="2.068"></rect><rect x="11.35" y="23.201" width="2.067" height="2.068"></rect><rect x="14.967" y="23.201" width="2.067" height="2.068"></rect><rect x="18.583" y="23.201" width="2.067" height="2.068"></rect><rect x="15.5" y="5.106" width="1" height="3.102"></rect><polygon points="13.4,6.231 16.5,6.231 16.5,3.646  "></polygon><path d="M16,15.386c-1.175,0-2.13-0.956-2.13-2.131s0.955-2.13,2.13-2.13s2.131,0.955,2.131,2.13S17.174,15.386,16,15.386z    M16,12.125c-0.623,0-1.13,0.507-1.13,1.13c0,0.624,0.507,1.131,1.13,1.131c0.624,0,1.131-0.507,1.131-1.131   C17.131,12.632,16.624,12.125,16,12.125z"></path></g><g display="none"><g display="inline"><circle fill="#454d55" cx="16" cy="14" r="14"></circle></g><path display="inline" fill="#454d55" stroke="#454d55" stroke-miterlimit="10" d="M8.767,27.854c-2.756,0-8.267,0-8.267,0v-8.789   h8.783"></path><path display="inline" fill="#454d55" stroke="#454d55" stroke-miterlimit="10" d="M23.233,19.065c2.756,0,8.267,0,8.267,0v8.789   h-8.783"></path><polygon display="inline" fill="#454d55" stroke="#454d55" stroke-miterlimit="10" points="15.731,8.208 9.283,13.378    9.283,27.854 22.717,27.854 22.717,13.378  "></polygon><rect x="11.35" y="16.997" display="inline" width="2.067" height="2.068"></rect><rect x="14.967" y="16.997" display="inline" width="2.067" height="2.068"></rect><rect x="18.583" y="16.997" display="inline" width="2.067" height="2.068"></rect><rect x="11.35" y="20.099" display="inline" width="2.067" height="2.068"></rect><rect x="2.05" y="21.133" display="inline" width="2.067" height="2.068"></rect><rect x="5.667" y="21.133" display="inline" width="2.067" height="2.068"></rect><rect x="24.267" y="21.133" display="inline" width="2.067" height="2.068"></rect><rect x="27.883" y="21.133" display="inline" width="2.067" height="2.068"></rect><rect x="14.967" y="20.099" display="inline" width="2.067" height="2.068"></rect><rect x="18.583" y="20.099" display="inline" width="2.067" height="2.068"></rect><rect x="11.35" y="23.201" display="inline" width="2.067" height="2.068"></rect><rect x="14.967" y="23.201" display="inline" width="2.067" height="2.068"></rect><rect x="18.583" y="23.201" display="inline" width="2.067" height="2.068"></rect><rect x="15.5" y="5.106" display="inline" width="1" height="3.102"></rect><polygon display="inline" points="13.4,6.231 16.5,6.231 16.5,3.646  "></polygon><circle display="inline" fill="none" stroke="#454d55" stroke-miterlimit="10" cx="16" cy="13.255" r="1.63"></circle></g><g display="none"><rect x="15.5" y="5.106" display="inline" width="1" height="3.102"></rect><polygon display="inline" points="13.4,6.231 16.5,6.231 16.5,3.646  "></polygon><g display="inline"><path d="M23.216,18.565v-5.439l-7.497-5.549l-6.937,5.561v5.428H0v9.789h8.783H8.85h13.866h0.5H32v-9.789H23.216z M4.117,23.201    H2.05v-2.068h2.067V23.201z M7.733,23.201H5.667v-2.068h2.067V23.201z M13.417,25.269H11.35v-2.068h2.067V25.269z M13.417,22.167    H11.35v-2.068h2.067V22.167z M13.417,19.065H11.35v-2.068h2.067V19.065z M17.033,25.269h-2.067v-2.068h2.067V25.269z     M17.033,22.167h-2.067v-2.068h2.067V22.167z M17.033,19.065h-2.067v-2.068h2.067V19.065z M16,14.674    c-0.994,0-1.802-0.809-1.802-1.803s0.808-1.802,1.802-1.802s1.803,0.808,1.803,1.802S16.994,14.674,16,14.674z M20.65,25.269    h-2.067v-2.068h2.067V25.269z M20.65,22.167h-2.067v-2.068h2.067V22.167z M20.65,19.065h-2.067v-2.068h2.067V19.065z     M26.333,23.201h-2.067v-2.068h2.067V23.201z M29.95,23.201h-2.067v-2.068h2.067V23.201z"></path></g><polyline display="inline" fill="none" stroke="#454d55" stroke-width="0.5" stroke-miterlimit="10" points="15.882,11.655    15.882,13.023 17.196,13.023  "></polyline></g></svg>