<?xml version="1.0" ?><!DOCTYPE svg  PUBLIC '-//W3C//DTD SVG 1.1//EN'  'http://www.w3.org/Graphics/SVG/1.1/DTD/svg11.dtd'><svg enable-background="new 0 0 128 128" height="128px" id="Layer_1" version="1.1" viewBox="0 0 128 128" width="128px" xml:space="preserve" xmlns="http://www.w3.org/2000/svg" xmlns:xlink="http://www.w3.org/1999/xlink"><g><g><path d="M99.645,114.742c-0.211-5.387-0.501-10.774-2.198-15.95c-0.479-1.469-1.007-3.033-1.953-4.191    c-1.002-1.219-2.399-2.493-3.851-2.888c-3.512-0.952-7.029-1.864-10.552-2.755c-5.348-1.358-10.702-2.671-16.05-4.013    c-0.306-0.072-0.646-0.05-1.185-0.089c-0.067,0.245-0.134,0.484-0.2,0.729c-0.935,3.451-1.809,6.907-2.861,10.307    c-1.263,4.074-2.682,8.103-4.09,12.127c-0.156,0.451-0.367,0.879-0.59,1.308c-0.25-1.831-0.568-4.235-0.879-6.595    c-0.573-4.419-1.113-8.704-1.113-8.849c0.223-0.506,0.423-0.985,0.634-1.447c0.028-0.067,0.056-0.134,0.095-0.2    c0.117-0.278,0.239-0.584,0.367-0.846c0.067-0.095,0.122-0.228,0.189-0.334c0.184-0.373,0.412-0.768,0.412-1.247    c0-0.401-0.161-0.768-0.278-1.074l-0.067-0.134c-0.028-0.067-0.028-0.095-0.067-0.173c-0.028-0.095-0.095-0.223-0.161-0.334    l-0.028-0.061c-0.022-0.028-0.067-0.067-0.067-0.095c-0.078-0.134-0.173-0.228-0.262-0.295c-0.173-0.117-0.345-0.156-0.479-0.184    h-0.317c-0.095-0.067-0.228-0.067-0.278-0.067c-0.44-0.028-1.542-0.028-2.961-0.028c-1.408,0-2.532,0-2.972,0.028    c-0.095,0-0.184,0-0.289,0.067h-0.278c-0.211,0.039-0.506,0.106-0.757,0.479c-0.028,0.028-0.028,0.067-0.056,0.134l-0.039,0.022    c-0.011,0.028-0.028,0.056-0.039,0.083c-0.25,0.25-0.401,0.595-0.412,1.007c-0.05,0.184-0.106,0.395-0.106,0.623    c0,0.479,0.211,0.874,0.412,1.247c0.011,0.028,0.039,0.067,0.05,0.106c0.044,0.078,0.095,0.161,0.134,0.228    c0.122,0.262,0.256,0.568,0.373,0.846c0.028,0.039,0.056,0.095,0.067,0.145c0.223,0.495,0.44,0.985,0.651,1.503    c0,0.089-0.122,1.057-0.306,2.532c-0.44,3.356-1.219,9.272-1.703,12.912c-0.223-0.429-0.434-0.857-0.59-1.308    c-1.408-4.024-2.827-8.053-4.09-12.127c-1.052-3.406-1.931-6.873-2.866-10.329c-0.067-0.234-0.128-0.473-0.195-0.707    c-0.54,0.039-0.879,0.017-1.185,0.089c-4.786,1.202-9.578,2.376-14.359,3.584c-0.006,0-0.006,0.006-0.006,0.006    c-4.085,1.024-8.17,2.076-12.238,3.178c-1.364,0.373-2.682,1.519-3.662,2.666c-0.067,0.072-0.128,0.15-0.189,0.223    c-0.946,1.158-1.475,2.721-1.953,4.191c-1.508,4.597-1.903,9.361-2.126,14.147c-0.022,0.601-0.05,1.202-0.072,1.803    c-0.134,3.412-0.634,2.749,2.688,4.146c0.818,0.345,1.647,0.651,2.493,0.929c6.011,1.948,12.127,3.245,18.304,4.107    c6.044,0.852,12.155,1.274,18.282,1.503c1.174,0.045,10.535,0.111,10.535,0.111c1.174-0.033,2.349-0.067,3.523-0.111    c9.678-0.351,19.306-1.224,28.723-3.428c2.638-0.612,5.259-1.336,7.864-2.182c0.846-0.278,1.675-0.584,2.493-0.929    C100.28,117.491,99.779,118.153,99.645,114.742z" fill="#2B2B28"/><path d="M70.371,50.353c0,0,0.108-1.113,0.137-1.719c0.092-1.933,0.237-3.865,0.354-5.797    c0.085-1.391,0.337-2.799,0.207-4.169c-0.26-2.751-1.666-5.005-3.572-6.945c-1.04-1.06-2.247-1.864-3.761-2.114    c-0.22-0.037-0.45-0.203-0.615-0.368c-1.62-1.625-3.537-2.769-5.685-3.535c-2.304-0.823-4.651-1.224-7.032-1.274    c-1.283-0.027-2.577,0.049-3.88,0.215c-3.742,0.477-7.232,1.644-10.307,3.871c-3.345,2.421-5.492,5.628-5.669,9.819    c-0.111,2.621,0.173,5.261,0.312,7.89c0.08,1.502,0.226,3.001,0.342,4.507c-0.139,0.042-0.224,0.089-0.308,0.089    c-1.664-0.019-2.442,1.337-2.546,2.619c-0.068,0.848-0.087,1.713,0.007,2.555c0.27,2.431,1.038,4.695,2.544,6.657    c0.823,1.073,1.474,1.251,2.684,0.804c0.014-0.005,1.798,4.702,1.982,5.128c1.641,3.792,4.849,7.933,8.868,9.338    c4.606,1.611,10.403,1.543,14.616-1.118c3.898-2.462,5.897-6.315,7.582-10.412c0,0,0.814-1.463,1.172-2.232    c0.147-0.315,0.155-0.618,0.495-0.675c0.266-0.045,0.655,0.183,0.959,0.162c0.672-0.048,1.149-0.521,1.539-1.03    c1.506-1.962,2.274-4.226,2.544-6.657c0.093-0.842,0.074-1.708,0.007-2.555c-0.104-1.282-0.881-2.638-2.546-2.619    c-0.084,0-0.169-0.047-0.308-0.089 M66.888,60.218c-1.03,3.549-2.664,6.888-4.529,10.067c-3.294,5.613-10.036,7.832-16.171,5.768    c-6.562-2.208-9.403-9.526-11.36-15.546c-1.065-3.279-1.438-6.663-1.438-10.1v-0.008c-0.016-0.583-0.043-1.248-0.092-1.622    c-0.005-0.097-0.012-0.196-0.016-0.293c4.617,0.107,9.225-0.02,13.79-0.803c1.299-0.223,2.586-0.479,3.849-0.792    c3.792-0.941,7.38-2.412,10.502-5.136c1.618,2.225,3.818,3.512,6.241,4.483c0.283,0.114,0.571,0.251,0.861,0.33    c-0.245,4.372-0.331,8.739-1.456,12.999C67.012,59.783,66.951,60.001,66.888,60.218z" fill="#2B2B28"/><g><g><path d="M123.59,20.064c-3.713-8.197-9.639-13.629-17.579-16.118c-1.995-0.632-4.148-1.067-6.4-1.323      c-6.005-0.652-12.227,0.691-17.5,3.773c-5.471,3.2-9.679,8-12.148,13.886c-0.533,1.264-0.968,2.509-1.304,3.773      c1.343,0.691,2.607,1.639,3.773,2.825c0.079,0.079,0.138,0.138,0.197,0.217c0.336-1.679,0.869-3.358,1.56-5.037      C78.358,12.143,88.609,6.02,99.117,7.165c1.936,0.217,3.812,0.612,5.531,1.146c6.637,2.094,11.614,6.676,14.775,13.649      c1.995,4.385,2.528,9.046,1.62,13.866c-1.561,8.316-6.163,14.301-14.044,18.251c-5.234,2.627-10.508,5.392-15.624,8.079      c-0.79,0.435-1.6,0.849-2.41,1.284c0.573-1.955,1.205-4.049,1.659-5.531l0.632-1.995l-1.916-0.79      c-0.336-0.138-0.672-0.277-0.988-0.415c-0.652-0.257-1.264-0.513-1.857-0.79c-2.983-1.402-5.511-3.22-7.624-5.452      c0.751,1.284,1.225,2.765,1.363,4.385c0.079,0.988,0.099,1.916,0.059,2.785c1.323,0.909,2.746,1.718,4.266,2.429      c0.356,0.158,0.711,0.316,1.086,0.474c-0.948,3.101-2.074,7.032-2.449,8.434c-0.336,1.284,0.395,2.607,1.659,3.002      c0.751,0.237,1.58,0.099,2.212-0.356c0.04-0.04,0.059-0.059,0.059-0.059c2.133-1.106,4.286-2.252,6.38-3.338      c5.096-2.686,10.35-5.452,15.545-8.059c9.126-4.563,14.656-11.812,16.493-21.49C126.632,30.907,125.981,25.318,123.59,20.064z" fill="#2B2B28"/></g></g><g><g><g><circle cx="112.723" cy="31.951" fill="#2B2B28" r="4.643"/></g><g><circle cx="97.777" cy="31.951" fill="#2B2B28" r="4.643"/></g><g><circle cx="82.83" cy="31.951" fill="#2B2B28" r="4.643"/></g></g></g></g></g></svg>