<?xml version="1.0" standalone="no"?><!DOCTYPE svg PUBLIC "-//W3C//DTD SVG 1.1//EN" "http://www.w3.org/Graphics/SVG/1.1/DTD/svg11.dtd"><svg t="1503564929462" class="icon" style="" viewBox="0 0 1024 1024" version="1.1" xmlns="http://www.w3.org/2000/svg" p-id="10170" xmlns:xlink="http://www.w3.org/1999/xlink" width="128" height="128"><defs><style type="text/css"></style></defs><path d="M679.030178 361.208669h32.477692c-27.838022-134.552485-171.669848-236.626255-334.061379-236.626256-180.950212 0-329.421708 125.273145-329.421708 283.023982 0 92.794429 51.037397 167.030178 129.912815 227.346915l-32.477692 102.07377 115.993804-60.316738c41.758056 9.279341 74.235748 18.558681 115.993805 18.558682h32.477692c-4.63967-23.198352-9.279341-46.397726-9.279341-69.596078-4.63967-143.831826 120.633475-264.464277 278.384312-264.464277z m-180.949189-97.435123c27.838022 0 51.037397 23.198352 51.037397 51.037396 0 27.838022-23.198352 51.037397-51.037397 51.037397-27.838022 0-51.037397-23.198352-51.037397-51.037397s23.198352-51.037397 51.037397-51.037396zM266.093381 370.488009c-27.838022 0-51.037397-23.198352-51.037397-51.037397 0-27.838022 23.198352-51.037397 51.037397-51.037396s51.037397 23.198352 51.037396 51.037396c0 27.838022-23.198352 51.037397-51.037396 51.037397z m709.879789 255.18596c0-134.552485-129.912815-241.266949-278.384311-241.266949-157.750837 0-278.384311 111.354134-278.384312 241.266949 0 134.552485 125.273145 241.265926 278.384312 241.265926 32.477692 0 64.956408-9.279341 97.434099-18.558681L883.178741 899.417587l-23.198352-83.515089c64.956408-46.396703 115.992781-115.992781 115.992781-190.228529zM609.4341 588.555583c-18.558681 0-37.118386-18.558681-37.118386-37.118385 0-18.558681 13.919011-37.118386 37.118386-37.118386 18.558681 0 37.118386 18.558681 37.118385 37.118386 0 18.559705-18.559705 37.118386-37.118385 37.118385z m180.950211 0c-18.558681 0-37.118386-18.558681-37.118385-37.118385 0-18.558681 18.558681-37.118386 37.118385-37.118386 18.558681 0 37.118386 18.558681 37.118386 37.118386-0.001023 18.559705-13.920034 37.118386-37.118386 37.118385z" fill="#1296db" p-id="10171"></path></svg>